<svg width="1024" height="1024" viewBox="0 0 1024 1024" fill="none" xmlns="http://www.w3.org/2000/svg">
<path d="M663.497 572.548C666.591 570.64 669.18 568.236 671.265 565.333C661.927 570.004 652.546 574.696 643.119 579.41L630.206 585.868C627.987 587.347 625.767 588.828 623.548 590.308L624.658 591.418C710.086 619.39 793.869 650.283 876.006 684.1C874.757 685.702 873.092 686.442 871.012 686.32C859.301 683.325 848.019 679.255 837.166 674.11C836.612 674.48 836.057 674.85 835.502 675.22C853.083 683.455 870.838 691.41 888.768 699.084C892.671 701.009 896.74 701.749 900.974 701.304C880.559 646.827 862.619 591.513 847.154 535.364C843.113 522.868 838.859 510.474 834.392 498.18C835.067 497.215 835.991 496.66 837.166 496.515C838.811 498.305 840.845 499.415 843.27 499.845C845.263 513.016 848.963 525.595 854.367 537.584C850.729 520.413 846.845 503.023 842.715 485.416C841.652 479.816 839.618 474.636 836.612 469.876C814.569 485.078 792.375 500.063 770.029 514.83C728.307 539.764 686.507 564.369 644.632 588.643C644.595 585.647 645.335 582.872 646.852 580.318C652.267 577.424 657.816 574.835 663.497 572.548Z" fill="#FFC400"/>
<path d="M712.324 519.825H715.654C714.657 519.095 713.547 518.355 712.324 517.605C712.556 516.954 712.927 516.399 713.434 515.94C718.894 514.005 724.072 511.6 728.97 508.725C730.939 509.154 732.789 509.894 734.519 510.945C735.652 510.388 735.837 509.648 735.073 508.725C734.047 508.118 733.123 507.378 732.299 506.505C733.301 504.152 734.782 503.782 736.738 505.395C737.671 499.355 739.891 498.615 743.396 503.175C744.77 500.803 746.804 499.323 749.5 498.735C750.072 495.923 751.367 493.518 753.384 491.521C759.534 491.133 764.158 488.358 767.255 483.196C768.766 484.777 770.431 485.702 772.249 485.971C773.758 483.82 773.388 481.97 771.139 480.421L780.017 479.311C780.945 478.188 781.315 476.894 781.126 475.426C785.189 475.509 785.929 474.399 783.346 472.096C785.955 471.528 788.174 470.418 790.004 468.766L801.101 466.546C800.529 464.632 799.789 462.782 798.881 460.997C787.486 463.759 776.019 465.794 764.481 467.101C766.434 466.03 766.804 464.735 765.59 463.216C764.098 464.156 762.988 465.451 762.261 467.101C759.377 467.955 756.603 467.77 753.938 466.546C751.025 467.414 748.066 468.524 745.061 469.876C741.223 469.003 737.339 468.633 733.409 468.766C733.564 470.569 732.824 471.864 731.19 472.651C728.372 473.534 725.783 473.349 723.422 472.096C718.944 474.005 714.134 475.115 708.995 475.426C706.33 473.707 703.371 472.967 700.118 473.206V476.536C701.285 476.37 702.395 476.555 703.447 477.091C703.077 477.461 702.707 477.831 702.337 478.201C698.229 478.312 694.345 479.237 690.685 480.976C689.637 480.526 688.896 479.786 688.466 478.756C686.543 481.089 684.323 481.459 681.807 479.866C681.59 477.883 680.666 476.403 679.033 475.426C678.664 475.796 678.293 476.166 677.924 476.536C680.5 479.96 679.391 481.81 674.594 482.086C673.742 478.047 673.003 478.417 672.375 483.196C667.847 483.104 663.594 481.994 659.613 479.866C657.777 482.811 655.557 485.401 652.955 487.636C650.579 486.228 647.99 485.488 645.187 485.416C641.636 486.047 638.122 486.787 634.645 487.636C634.81 486.468 634.626 485.358 634.09 484.306C632.845 486.438 631.92 488.657 631.316 490.966C628.241 489.205 624.912 488.65 621.329 489.301C620.722 490.327 619.982 491.252 619.109 492.076C617.702 491.046 616.223 490.861 614.67 491.521C617.338 492.084 618.078 493.379 616.89 495.405C614.325 494.614 611.92 493.504 609.677 492.076C609.307 493.556 608.936 495.036 608.567 496.515C605.664 494.084 602.335 492.604 598.58 492.076C597.681 497.122 596.201 497.492 594.141 493.186C591.181 496.145 588.223 496.145 585.263 493.186C584.431 493.88 583.505 494.435 582.489 494.85C583.968 496.7 583.968 498.55 582.489 500.4C579.318 499.244 576.729 500.169 574.721 503.175C588.925 525.671 600.762 549.35 610.232 574.213C608.407 574.451 606.743 574.08 605.238 573.103C603.534 568.86 601.131 565.16 598.025 562.003C599.292 569.915 602.252 576.945 606.902 583.093C612.216 580.437 617.764 578.402 623.548 576.988C626.809 571.066 631.248 569.401 636.864 571.993C636.639 569.895 637.378 568.23 639.084 566.998C646.124 561.424 653.521 556.245 661.278 551.459C663.747 551.194 664.117 552.119 662.388 554.234C663.497 555.713 664.607 555.713 665.717 554.234C664.819 552.49 664.448 550.64 664.607 548.684H672.375V545.354H677.924C677.68 544.05 678.05 542.94 679.033 542.024C681.654 539.957 684.614 538.662 687.911 538.139C689.169 537.011 688.8 536.271 686.801 535.919C694.161 529.279 702.669 525.024 712.324 523.155V519.825Z" fill="#FFC400"/>
<path d="M871.012 504.285C868.268 504.742 866.789 503.632 866.574 500.955C865.468 501.051 864.544 500.68 863.799 499.845C863.313 496.653 862.204 493.693 860.47 490.966C858.796 491.62 857.131 492.36 855.477 493.186C858.307 496.703 859.972 500.773 860.47 505.395C863.048 510.894 865.638 516.444 868.238 522.045C869.06 525.443 868.876 528.773 867.683 532.034C870.816 533.292 871.556 535.327 869.903 538.139C872.009 542.578 873.489 547.203 874.342 552.014C876.144 551.858 877.438 552.599 878.225 554.234C879.05 556.388 878.865 558.423 877.671 560.338C878.687 560.754 879.613 561.309 880.445 562.003C881.406 566.181 882.701 570.252 884.329 574.213C882.704 576.98 882.89 579.57 884.884 581.983C885.808 580.873 886.734 579.763 887.658 578.653C888.131 583.137 889.61 587.207 892.097 590.863C891.514 591.631 890.774 592.186 889.877 592.527C894.17 595.855 893.8 598.814 888.768 601.407C891.063 602.17 893.282 601.984 895.426 600.852L896.536 601.962L894.871 604.182L893.207 606.402C894.526 607.433 896.005 607.803 897.645 607.512V610.842C892.831 610.977 892.461 611.347 896.536 611.952C896.738 614.273 896.367 616.493 895.426 618.612C897.438 619.871 899.472 620.981 901.529 621.942C902.491 627.758 904.156 633.308 906.523 638.591C906.423 640.728 905.313 642.023 903.194 642.476C905.339 642.755 907.373 643.31 909.297 644.141C908.083 646.465 907.713 649.055 908.188 651.911C909.306 653.863 910.971 655.158 913.181 655.795L910.962 658.015C912.721 658.11 914.2 658.294 915.401 658.57C914.503 660.314 914.132 662.165 914.291 664.12C915.458 663.955 916.568 664.139 917.62 664.675C915.685 667.964 915.13 671.478 915.956 675.22L917.065 674.11C919.31 675.789 919.125 677.269 916.51 678.55L918.044 680.595C918.642 681.393 919.241 682.192 919.839 682.99C918.865 686.232 918.865 689.192 919.839 691.869C920.223 693.197 920.778 693.197 921.504 691.869C922.027 689.931 922.767 688.081 923.723 686.32C921.783 694.099 923.633 700.759 929.272 706.299C934.411 698.639 941.624 694.569 950.911 694.089C950.686 691.991 951.425 690.327 953.131 689.095C956.308 687.542 959.637 686.432 963.118 685.765C962.167 685 961.428 684.075 960.899 682.99C964.254 680.745 967.953 679.635 971.996 679.66C971.83 678.492 972.015 677.382 972.551 676.33C976.486 679.555 978.15 678.445 977.544 673C980.481 672.565 983.255 672.565 985.867 673C986.403 671.948 986.587 670.838 986.422 669.67C988.562 669.969 990.411 669.414 991.97 668.005C990.604 666.692 990.604 665.398 991.97 664.12C994.988 665.632 997.762 665.262 1000.29 663.01C1001.15 663.171 1001.89 663.541 1002.51 664.12C1002.63 663.776 1002.74 663.432 1002.86 663.088L1003.07 662.455C1000.81 658.05 999.146 653.426 998.074 648.581C995.663 647.376 993.444 645.896 991.416 644.141C991.667 641.839 991.483 639.619 990.861 637.481C984.241 634.375 979.248 629.565 975.88 623.052C968.874 619.011 964.435 613.092 962.563 605.292C957.913 602.488 954.399 598.603 952.021 593.637L953.131 592.527C951.411 589.798 949.191 589.058 946.472 590.308C938.789 584.374 933.426 576.789 930.382 567.553L928.162 565.333C927.919 566.929 927.364 568.409 926.498 569.773C924.036 568.193 922.372 565.973 921.504 563.113C916.21 559.867 913.99 555.057 914.846 548.684C913.954 550.132 912.659 550.872 910.962 550.904C908.33 549.946 908.33 548.651 910.962 547.019C906.984 548.729 904.393 547.434 903.194 543.134C904.836 542.453 906.316 542.084 907.633 542.024C904.832 540.148 902.612 537.743 900.974 534.809C894.714 534.741 890.83 531.596 889.323 525.375C887.92 523.036 885.886 521.926 883.219 522.045C882.994 519.946 883.733 518.281 885.439 517.05C884.271 515.808 882.976 515.253 881.555 515.385C878.222 518.278 877.298 517.538 878.78 513.165C877.431 512.504 875.952 512.318 874.342 512.61C875.293 511.845 876.032 510.92 876.561 509.835C872.916 509.615 871.066 507.765 871.012 504.285Z" fill="#FFC400"/>
<path d="M965.337 797.316C964.743 793.766 965.483 790.806 967.557 788.436C968.394 785.56 970.243 783.526 973.105 782.332C970.215 782.303 968.921 781.007 969.221 778.447C971.233 778.173 973.269 777.803 975.325 777.337C974.955 776.596 974.585 775.857 974.215 775.117C975.192 772.976 976.301 770.94 977.544 769.012C975.932 767.033 974.822 764.813 974.215 762.352C975.748 758.952 977.782 755.808 980.318 752.917C980.87 749.981 981.055 747.02 980.873 744.038C983.014 744.336 984.863 743.781 986.422 742.373C984.423 742.021 984.054 741.281 985.312 740.153C983.833 739.783 982.353 739.413 980.873 739.043C984.378 737.199 986.968 734.424 988.641 730.718C987.901 729.608 987.162 728.498 986.422 727.388C989.249 725.48 988.88 724.001 985.312 722.948C987.117 721.295 988.965 719.63 990.861 717.954C989.732 716.789 989.547 715.494 990.306 714.069C993.45 712.404 995.854 709.998 997.519 706.854C996.568 706.089 995.829 705.165 995.299 704.079C996.55 700.389 998.4 697.06 1000.85 694.089L999.738 692.979C980.099 703.171 960.494 713.345 940.924 723.503C937.409 724.428 936.116 723.134 937.04 719.619C940.265 716.803 943.779 714.397 947.582 712.404C948.909 711.678 948.909 711.123 947.582 710.739C939.085 713.694 930.616 716.641 922.172 719.579L922.059 719.619C924.274 726.498 923.534 732.974 919.839 739.043C921.689 741.066 922.799 743.472 923.169 746.258C919.897 748.336 919.342 750.926 921.504 754.027C922.528 762.527 923.454 771.037 924.278 779.557C924.385 782.249 923.646 784.655 922.059 786.771C924.803 788.328 924.803 789.993 922.059 791.766C923.792 795.223 923.423 798.367 920.949 801.201L924.833 805.086C925.911 813.824 925.356 822.333 923.169 830.615C924.971 830.771 926.265 830.03 927.053 828.395C927.445 832.673 928 836.929 928.717 841.16C928.608 844.349 927.128 846.569 924.278 847.82C929.473 848.931 929.843 850.78 925.388 853.369C927.508 853.822 928.617 855.118 928.717 857.254C928.385 859.824 927.461 859.824 925.943 857.254C925.314 860.216 924.759 863.175 924.278 866.134C926.103 865.896 927.767 866.267 929.272 867.244C929.617 869.526 930.172 871.746 930.937 873.904C927.126 876.916 926.756 880.246 929.827 883.893C928.264 884.718 926.785 885.644 925.388 886.668C927.008 888.968 928.857 889.894 930.937 889.443C926.905 892.778 926.905 895.923 930.937 898.878C927.855 901.29 928.04 901.845 931.491 900.543C934.897 891.064 937.856 881.445 940.369 871.684C941.241 868.262 943.275 865.858 946.472 864.469C947.345 857.503 949.564 850.659 953.131 843.935C950.285 841.919 950.285 839.884 953.131 837.83C951.825 833.599 953.304 830.824 957.569 829.505C956.463 829.538 955.723 828.983 955.35 827.84C957.657 821.913 960.617 816.363 964.228 811.191C962.318 809.596 960.653 810.151 959.234 812.856C959.049 812.486 958.865 812.115 958.679 811.746C960.165 808.412 961.645 805.083 963.118 801.756C960.059 798.843 960.799 797.364 965.337 797.316Z" fill="#FFC400"/>
<path d="M811.088 923.852C812.589 924.989 814.068 926.099 815.527 927.182C815.433 925.523 816.172 924.413 817.747 923.852C821.001 925.439 823.776 927.659 826.069 930.512L829.953 926.627C834.842 926.007 839.465 926.932 843.825 929.402C845.224 929.115 846.334 928.374 847.154 927.182C848.591 928.671 849.146 930.15 848.818 931.622C850.19 930.794 851.67 930.424 853.257 930.512C853.014 929.208 853.384 928.098 854.367 927.182C855.893 930.564 858.482 932.044 862.135 931.622C861.961 930.098 862.146 928.617 862.69 927.182C863.372 928.976 864.482 930.455 866.019 931.622C867.869 930.142 869.717 930.142 871.567 931.622C871.909 930.725 872.464 929.985 873.232 929.402C875.623 932.165 878.583 934.015 882.109 934.952C883.704 932.128 885.369 932.128 887.103 934.952C888.267 933.823 889.562 933.638 890.987 934.397C894.062 938.453 895.542 937.898 895.426 932.732C898.667 932.339 901.256 933.449 903.194 936.062C905.918 934.497 907.028 932.091 906.523 928.847C901.752 869.176 899.904 809.424 900.974 749.588C902.858 750.547 904.152 752.026 904.859 754.027C905.557 757.148 906.111 760.292 906.523 763.462C905.716 770.719 905.346 777.934 905.413 785.107C905.755 786.003 906.31 786.744 907.078 787.326C908.878 769.979 909.617 752.589 909.297 735.158C872.033 767.996 834.118 800 795.552 831.17C793.505 832.422 791.286 832.977 788.894 832.835C789.06 834.003 788.875 835.113 788.339 836.165C762.1 857.043 736.022 878.133 710.105 899.433C709.259 898.181 708.519 896.886 707.886 895.548C712.812 888.04 719.47 882.49 727.86 878.899C732.463 874.478 736.902 869.854 741.177 865.024C720.477 878.721 700.503 893.52 681.253 909.423C683.043 910.452 684.891 911.377 686.801 912.198C692.702 911.748 697.695 913.413 701.782 917.192C711.868 915.916 722.04 915.731 732.299 916.637C736.046 916.433 739.005 917.729 741.177 920.522C747.22 918.55 753.139 919.29 758.932 922.742C761.375 920.878 764.149 919.768 767.255 919.412C775.891 921.099 784.213 923.689 792.223 927.182C790.874 925.017 789.025 923.352 786.675 922.187C792.601 921.981 798.52 922.352 804.43 923.297C806.065 924.085 806.805 925.38 806.649 927.182H809.979C809.736 925.878 810.105 924.768 811.088 923.852Z" fill="#FFC400"/>
<path d="M477.067 756.802C473.909 756.811 471.69 758.107 470.408 760.687C471.094 760.564 471.648 760.194 472.073 759.577C473.939 761.092 474.124 762.757 472.628 764.572C467.822 764.416 467.082 765.895 470.408 769.012C521.099 798.645 570.295 830.463 617.999 864.469C624.47 867.889 630.759 871.59 636.864 875.569C639.357 876.964 640.836 878.999 641.303 881.674C638.688 881.854 636.099 881.67 633.535 881.119C628.144 878.695 623.335 875.366 619.109 871.129C618.018 870.473 617.278 870.844 616.89 872.239C627.819 881.488 639.286 890.183 651.291 898.323C652.13 893.703 652.87 889.078 653.51 884.448C651.591 881.534 650.111 878.388 649.071 875.014C649.811 873.163 650.55 871.314 651.291 869.464C650.586 867.837 649.66 866.356 648.516 865.024C645.725 854.224 642.766 843.495 639.639 832.835C638.788 828.331 638.973 823.891 640.193 819.515C637.937 817.349 637.568 814.945 639.084 812.301C637.789 811.746 636.864 810.821 636.31 809.526C635.756 804.73 635.57 799.92 635.755 795.096C631.147 794.951 630.408 793.286 633.535 790.101C631.501 789.546 630.206 788.251 629.651 786.217C628.881 780.269 627.957 774.35 626.877 768.457C626.909 766.76 627.649 765.465 629.096 764.572C627.156 763.138 625.122 761.844 622.993 760.687C622.798 756.933 622.243 753.234 621.329 749.588C618.523 748.459 618.523 747.163 621.329 745.703C617.551 741.967 617.921 738.267 622.438 734.603C620.625 734.055 618.775 733.871 616.89 734.048C617.63 731.459 618.369 728.868 619.109 726.278C617.061 726.587 615.58 725.847 614.67 724.058C615.948 722.692 617.241 722.692 618.554 724.058C618.74 723.503 618.924 722.948 619.109 722.393C618.124 721.039 617.383 719.56 616.89 717.954C617.583 715.91 617.769 713.876 617.445 711.849C614.521 710.769 612.301 708.918 610.786 706.299C612.238 699.428 611.312 692.954 608.012 686.875C608.367 685.04 609.477 683.93 611.341 683.545C609.307 682.99 608.012 681.694 607.457 679.66C606.386 681.613 605.091 681.984 603.573 680.77C605.489 678.852 606.968 676.632 608.012 674.11C607.73 669.943 605.511 667.907 601.354 668.005C605.695 664.171 605.695 663.246 601.354 665.23C600.085 662.501 600.455 659.91 602.464 657.46C604.135 656.076 605.799 656.076 607.457 657.46C608.324 655.858 608.139 654.378 606.902 653.021C603.871 655.292 600.542 656.217 596.915 655.795C601.208 652.118 603.058 647.678 602.464 642.476C598.044 642.221 597.304 640.741 600.244 638.036C596.517 635.778 596.147 633.188 599.134 630.266C597.887 629.99 596.777 629.435 595.805 628.601C596.633 627.229 597.003 625.749 596.915 624.162C595.611 624.405 594.501 624.035 593.586 623.052C594.223 621.321 594.962 619.656 595.805 618.057C594.473 617.054 593.547 615.76 593.031 614.172C591.503 616.674 589.838 619.078 588.037 621.387C586.224 621.935 584.374 622.119 582.489 621.942C582.663 623.466 582.478 624.946 581.934 626.381C579.61 629.069 577.761 632.029 576.385 635.261C573.642 637.257 571.792 639.848 570.837 643.031C566.962 646.713 563.447 650.413 560.295 654.131C557.381 656.578 554.052 659.723 550.307 663.565C550.815 664.025 551.185 664.58 551.417 665.23C549.971 667.97 548.307 670.559 546.423 673C541.985 677.661 536.991 681.546 531.442 684.655C533.226 684.634 535.076 684.449 536.991 684.1C536.851 687.394 535.186 689.614 531.997 690.759C529.866 697.084 525.982 699.304 520.345 697.419C522.023 698.251 523.132 699.546 523.674 701.304C523.108 703.331 522.183 703.516 520.9 701.859C520.597 703.636 520.042 705.301 519.236 706.854C516.84 707.866 514.436 708.791 512.022 709.629L510.913 718.509C506.104 720.359 502.775 723.689 500.925 728.498C500.186 727.758 499.446 727.019 498.706 726.278C497.791 728.721 498.345 730.756 500.371 732.383C497.588 732.486 495.184 733.411 493.157 735.158C490.789 737.465 490.974 739.5 493.712 741.263C489.906 744.897 485.467 747.301 480.396 748.478C480.308 750.065 480.678 751.546 481.506 752.917C480.647 754.262 479.722 754.262 478.731 752.917C478.388 754.323 477.833 755.618 477.067 756.802Z" fill="#FFC400"/>
<path d="M553.082 635.261C552.546 636.313 552.361 637.423 552.527 638.591C563.925 626.634 575.576 614.796 587.482 603.072C590.337 599.85 592.741 596.336 594.696 592.527C593.67 588.612 592.56 584.727 591.366 580.873C588.416 577.733 585.641 574.403 583.044 570.883C582.255 568.811 582.809 567.146 584.708 565.888C582.211 561.835 579.066 558.319 575.276 555.344C574.906 552.384 574.536 549.424 574.166 546.464C573.735 547.494 572.995 548.234 571.947 548.684C570.059 547.547 568.394 546.067 566.953 544.244C568.475 541.891 567.735 540.781 564.734 540.914C564.449 538.369 564.819 535.965 565.843 533.699C560.522 532.899 558.673 529.939 560.295 524.82L555.856 523.71C556.435 523.087 556.805 522.347 556.966 521.49C554.67 518.662 551.896 518.108 548.643 519.825C549.352 526.757 546.577 531.382 540.32 533.699C541.271 534.464 542.01 535.389 542.539 536.474C539.279 547.676 535.765 558.776 531.997 569.773C530.598 572.782 528.564 575.188 525.894 576.988C526.473 577.611 526.843 578.351 527.004 579.208C525.884 580.504 524.774 581.8 523.674 583.093C523.907 583.743 524.276 584.298 524.784 584.758C523.279 587.419 521.984 590.194 520.9 593.082C520.53 592.713 520.16 592.342 519.79 591.973C520.508 601.313 518.289 609.822 513.132 617.502C512.585 619.315 512.4 621.166 512.577 623.052C509.075 623.084 507.226 624.934 507.029 628.601C508.508 628.971 509.988 629.342 511.468 629.711C510.453 632.113 509.158 634.333 507.584 636.371C508.943 639.513 508.204 642.103 505.364 644.141C505.775 650.199 503.741 651.68 499.261 648.581C498.278 649.496 497.908 650.606 498.151 651.911C500.2 651.602 501.68 652.342 502.59 654.131C497.535 655.283 496.796 657.688 500.371 661.345C497.353 663.989 494.764 666.95 492.603 670.225C493.996 672.273 495.106 674.493 495.932 676.885C493.395 680.659 490.991 684.544 488.719 688.54C488.502 690.434 488.502 692.285 488.719 694.089C487.596 695.018 486.302 695.388 484.835 695.199C484.779 697.519 485.889 698.999 488.164 699.639C492.216 696.142 496.1 692.442 499.816 688.54C522.782 661.873 545.716 635.233 568.617 608.622C569.717 609.654 570.272 610.948 570.282 612.507C565.954 620.938 560.221 628.524 553.082 635.261Z" fill="#FFC400"/>
<path d="M514.797 828.95C512.955 824.676 509.995 821.53 505.919 819.515C504.278 822.193 504.833 824.413 507.584 826.175C508.131 827.989 508.316 829.839 508.138 831.725C511.763 831.651 513.427 833.5 513.132 837.275C514.123 835.931 515.048 835.931 515.906 837.275C518.096 840.76 520.5 844.09 523.12 847.265C523.916 846.209 524.841 846.025 525.894 846.71C531.777 850.37 536.031 855.365 538.655 861.694C541.719 862.803 543.199 865.023 543.094 868.354C545.999 872.359 546.924 872.359 545.869 868.354C547.821 866.962 549.485 867.332 550.862 869.464C552.927 873.369 555.701 876.699 559.185 879.454C560.593 881.89 560.593 884.294 559.185 886.668C560.902 887.038 562.381 886.483 563.624 885.003C567.469 886.04 567.838 887.705 564.734 889.998C566.82 889.432 568.854 889.618 570.837 890.553C571.668 891.813 571.484 892.923 570.282 893.883C569.632 893.651 569.077 893.28 568.617 892.773C568.063 894.069 567.138 894.993 565.843 895.548C567.693 895.918 569.542 896.288 571.392 896.658C572.232 898.336 573.342 899.817 574.721 901.098C577.753 901.556 580.712 902.297 583.599 903.318C585.375 909.164 589.075 913.233 594.696 915.527C593.955 917.007 592.846 918.117 591.366 918.857L592.476 919.967C595.085 919.812 597.674 919.257 600.244 918.302C599.847 923.242 601.696 927.127 605.793 929.957C609.904 930.001 612.309 932.036 613.006 936.062C613.465 935.555 614.02 935.184 614.67 934.952C616.394 936.911 616.763 938.946 615.78 941.057C617.192 942.507 618.301 944.172 619.109 946.052C620.882 944.958 622.732 944.774 624.658 945.497C623.761 945.838 623.021 946.393 622.438 947.162C625.352 948.042 627.388 949.892 628.542 952.711C629.001 952.204 629.556 951.833 630.206 951.601C633.354 952.721 634.834 954.941 634.645 958.261C633.478 958.096 632.368 958.28 631.316 958.816C633.891 959.745 636.482 960.115 639.084 959.926C641.138 958.057 642.988 956.022 644.632 953.821C643.66 952.988 642.551 952.433 641.303 952.156C642.275 950.396 643.385 948.731 644.632 947.162C643.74 945.562 643 943.897 642.413 942.167C645.56 940.319 648.149 937.728 650.181 934.397C648.232 934.173 646.384 933.618 644.632 932.732C647.93 929.506 648.671 925.806 646.852 921.632C648.156 921.875 649.265 921.506 650.181 920.522C649.201 919.359 648.461 918.064 647.961 916.637C651.282 911.771 649.801 909.551 643.523 909.978C642.683 908.299 641.573 906.819 640.193 905.538C634.43 904.214 630.916 900.698 629.651 894.993C628.487 896.122 627.192 896.307 625.767 895.548C618.335 891.462 610.936 887.392 603.573 883.338C599.506 881.487 597.101 878.343 596.36 873.904C595.196 875.033 593.901 875.218 592.476 874.459C588.279 871.192 584.21 867.677 580.269 863.914C579.184 864.444 578.26 865.183 577.495 866.134C568.949 862.02 561.736 856.285 555.856 848.93C553.11 849.215 553.11 850.325 555.856 852.259C554.746 853 553.636 853 552.527 852.259C546.344 847.009 539.686 842.384 532.552 838.385C533.382 836.258 533.382 834.038 532.552 831.725C530.912 831.434 529.432 831.804 528.113 832.835C531.364 834.11 531.919 835.96 529.778 838.385C527.027 835.288 524.993 831.774 523.674 827.84C520.872 828.844 517.913 829.214 514.797 828.95Z" fill="#FFC400"/>
<path d="M732.299 933.287C712.591 928.271 692.616 924.757 672.375 922.742C671.598 939.355 668.269 955.45 662.388 971.026C663.784 972.978 665.634 974.274 667.936 974.911C670.841 973.942 673.8 973.202 676.814 972.691C679.49 972.586 681.525 973.696 682.917 976.021C683.919 974.688 685.213 973.762 686.801 973.246C695.016 972.178 703.154 970.697 711.215 968.806C715.284 968.066 719.352 968.066 723.422 968.806L725.086 970.471C726.67 967.932 728.705 967.563 731.19 969.361C732.108 968.345 733.218 967.606 734.519 967.141C737.384 968.869 739.789 968.498 741.732 966.031C742.496 966.982 743.421 967.721 744.506 968.251L746.237 965.942L747.835 963.811C748.92 964.34 749.845 965.08 750.609 966.031C751.574 962.409 753.054 962.039 755.048 964.921C760.478 962.371 766.211 962.001 772.249 963.811C775.478 963.762 776.587 962.468 775.578 959.926L781.611 958.489L787.23 957.151C788.086 957.312 788.826 957.682 789.449 958.261C793.38 954.825 796.154 955.565 797.772 960.481C798.491 955.888 800.341 955.148 803.32 958.261C804.22 956.162 805.7 954.683 807.759 953.821L808.314 956.041L808.869 958.261C809.663 957.361 810.589 956.621 811.643 956.041C816.996 959.781 819.771 958.3 819.966 951.601C778.708 946.94 737.649 941.575 696.789 935.507C698.492 932.892 700.897 931.227 704.002 930.512C706.533 932.42 709.122 932.791 711.77 931.622C716.562 932.392 721.185 933.502 725.641 934.952C728.009 934.935 730.228 934.38 732.299 933.287Z" fill="#FFC400"/>
<path d="M441.641 39.3758C432.012 39.3758 432.697 27 423.068 27C406.126 41.8592 379.297 70.0486 363.219 86.8165L367.347 90.9417C340.744 112.387 328.361 138.514 330.199 169.322C316.589 178.791 304.207 189.792 293.052 202.324C264.338 217.292 240.949 237.918 222.884 264.203C196.201 278.231 170.06 293.357 144.462 309.581C133.102 322.279 123.471 336.03 115.57 350.834C116.548 351.811 139.357 343.669 140.335 344.646C140.732 345.044 125.888 350.834 119.697 357.022C86.4424 410.185 46.5436 455.562 0 497.281V513.782C2.68233 515.036 5.43399 516.41 8.25498 517.908C20.3598 512.008 30.6785 503.758 39.2112 493.156C40.5873 499.538 38.5235 505.037 33.0199 509.657C35.2497 514.805 38.0013 519.62 41.2749 524.095C50.168 524.574 58.423 523.2 66.0398 519.97C54.8708 529.751 45.2398 540.749 37.1474 552.972C38.5232 554.346 39.8991 555.724 41.2749 557.098C32.7752 561.986 32.0873 566.8 39.2112 571.536C65.1892 551.071 88.578 527.697 109.378 501.406C110.067 502.78 110.754 504.158 111.442 505.532C98.3717 520.659 85.3016 535.782 72.2311 550.91C68.6682 560.187 70.732 567.749 78.4223 573.599C66.0398 583.223 53.6574 592.851 41.2749 602.476C44.728 606.646 46.1041 611.461 45.4024 616.914C50.8593 616.213 55.6745 617.587 59.8486 621.039C101.556 576.412 105.684 580.537 72.2311 633.415C70.1942 640.156 69.5061 647.033 70.1673 654.042C86.6711 648.151 101.117 638.526 113.506 625.165C104.066 646.513 90.3078 665.766 72.2311 682.918C70.1942 689.659 69.5061 696.536 70.1673 703.545C83.3381 702.464 94.3449 696.965 103.187 687.044C106.462 688.822 109.902 690.2 113.506 691.169C136.064 684.379 154.638 672.003 169.227 654.042C170.603 655.415 171.979 656.793 173.355 658.167C162.48 673.01 159.041 689.511 163.036 707.67C173.713 702.736 185.407 702.736 198.119 707.67V732.422C213.205 732.537 224.212 725.66 231.139 711.795C231.135 721.638 227.008 731.267 218.757 740.672C220.133 743.424 221.509 746.171 222.884 748.923C233.891 750.297 244.898 751.674 255.904 753.048C265.099 750.082 272.666 744.583 278.606 736.547C282.061 744.183 285.501 751.745 288.924 759.236C294.224 762.058 299.039 761.369 303.37 757.173L307.498 786.05C313.548 793.579 321.115 795.642 330.199 792.238C336.565 785.432 340.518 779.862 342.91 777.8C350.837 771.612 352.212 777.8 359.092 777.8C359.092 777.8 363.219 792.238 363.219 786.05C370.493 786.64 377.373 785.262 383.857 781.925C387.416 787.148 390.168 792.647 392.112 798.426H404.494C408.64 793.546 412.079 788.047 414.813 781.925C419.019 786.822 423.835 790.947 429.259 794.301C436.42 791.036 442.879 786.839 448.639 781.714C447.946 780.993 447.249 780.274 446.55 779.557C445.791 778.132 445.976 776.836 447.105 775.672C443.752 771.455 444.862 769.05 450.434 768.457C448.366 766.126 445.776 764.647 442.666 764.017C442.544 761.797 443.725 754.212 444.33 750.698C455.424 708.157 468.74 666.349 484.28 625.271L484.446 624.86C474.473 621.204 464.333 617.868 454.024 614.852C429.048 613.779 404.285 611.027 379.729 606.601C372.357 603.363 366.166 598.553 361.155 592.163C353.699 573.937 345.444 556.062 336.39 538.534C326.998 524.557 313.928 517.685 297.179 517.908C288.695 524.215 276.313 526.963 260.032 526.158C244.986 528.972 233.979 524.157 227.012 511.72C235.159 503.63 240.662 494.002 243.522 482.843C234.591 471.37 233.903 459.683 241.458 447.778C258.104 429.759 275.99 413.258 295.115 398.275C310.665 350.062 344.373 326.685 396.239 328.145C403.798 373.376 405.862 418.754 402.43 464.279C422.019 487.463 446.099 503.964 474.661 513.782C489.627 527.785 500.999 544.026 508.78 562.505C512.387 552.944 515.959 543.331 519.495 533.665C505.775 516.264 490.144 501.387 472.598 489.031C468.742 461.845 464.615 435.719 460.215 410.65C454.713 399.65 449.207 399.65 443.705 410.65C440.482 430.472 442.545 449.724 449.896 468.404C447.824 472.616 445.075 473.305 441.641 470.467L427.195 456.028C425.573 418.814 422.82 381.687 418.94 344.646C412.464 339.638 409.024 332.762 408.621 324.02C421.004 275.949 449.896 241.572 495.299 220.888C494.523 257.961 508.969 286.838 538.637 307.519C548.209 303.771 550.962 296.895 546.892 286.892C538.46 279.846 531.579 271.596 526.255 262.141C515.144 236.547 505.51 210.421 497.362 183.76C480.811 149.268 457.421 120.391 427.195 97.1296C426.56 86.5562 428.623 76.243 433.386 66.1901C427.513 60.3651 428.202 55.5523 435.45 51.7516C446.999 71.3996 460.067 89.9632 474.661 107.443C507.586 116.291 526.849 137.605 532.446 171.385C545.456 177.197 557.838 184.073 569.594 192.011C577.906 205.23 583.408 219.668 586.104 235.326C606.423 255.636 626.831 276.032 647.326 296.516L650.754 299.943L668.653 317.832C681.296 317.652 693.678 316.277 705.801 313.706C699.098 318.315 694.97 324.503 693.418 332.27C691.227 360.319 703.609 378.195 730.566 385.899C723.875 398.902 719.747 412.653 718.183 427.152C726.488 429.271 734.743 429.959 742.948 429.214C741.574 427.839 740.195 426.464 738.821 425.089C743.452 416.328 749.643 408.765 757.394 402.4C760.833 405.838 764.275 409.275 767.713 412.713C762.492 418.23 760.428 424.418 761.522 431.277C763.715 435.227 766.021 439.107 768.442 442.916C773.781 442.274 779.119 441.641 784.455 441.017H797.772C797.997 443.115 797.258 444.78 795.552 446.012C790.442 446.35 785.449 447.275 780.571 448.787C777.498 447.919 774.487 447.543 771.537 447.658C772.492 449.081 773.462 450.494 774.449 451.896C785.044 451.151 795.641 450.376 806.237 449.572C808.885 444.883 811.865 440.159 815.179 435.402C817.517 439.558 819.365 443.908 820.723 448.453C823.984 448.197 827.246 447.939 830.508 447.677C834.715 447.885 838.599 448.994 842.16 451.007C840.895 452.758 840.34 454.608 840.495 456.557C842.682 454.546 845.203 453.133 848.058 452.318C848.106 452.18 848.153 452.042 848.199 451.903C854.386 430.623 854.386 408.621 848.199 385.899C831.289 372.618 816.157 357.492 802.797 340.521C801.422 341.896 800.044 343.271 798.669 344.646C785.928 311.906 779.736 280.279 780.095 249.765C802.153 267.69 821.416 288.316 837.88 311.644C854.39 321.957 873.719 315.529 891.538 315.769C922.907 347.527 957.99 373.654 996.789 394.149C1017.32 382.714 975.359 374.464 998.852 369.398C961.358 346.361 925.59 320.922 891.538 293.08C878.792 289.587 867.099 291.65 856.454 299.268C832.812 283.041 810.111 263.102 788.351 239.452C774.053 236.083 760.292 237.458 747.076 243.577C740.24 251.124 731.985 256.624 722.311 260.078C708.913 276.379 693.781 288.755 676.908 297.205C662.272 275.699 643.699 258.51 621.187 245.64C609.89 222.082 598.193 198.706 586.104 175.51C575.562 165.428 563.179 158.552 548.956 154.883C540.16 122.031 519.523 100.717 487.044 90.9417C469.465 75.4653 454.333 58.2767 441.641 39.3758Z" fill="white"/>
<path d="M282.733 470.467C294.891 475.582 307.273 475.582 319.88 470.467C334.082 474.052 347.84 478.866 361.155 484.905C367.114 492.178 371.242 500.429 373.538 509.657C410.105 521.455 436.247 544.833 451.96 579.787C450.994 586.932 446.867 590.372 439.578 590.1C421.582 574.861 405.07 558.36 390.048 540.597C381.147 535.275 371.516 531.834 361.155 530.283C352.103 521.93 347.976 511.617 348.773 499.344C328.363 493.903 307.725 489.088 286.861 484.905C283.407 480.735 282.031 475.921 282.733 470.467Z" fill="white"/>
<path d="M501.49 433.339C498.985 433.849 497.61 435.224 497.362 437.465C500.528 440.237 503.281 443.674 505.617 447.778C527.16 457.008 548.126 467.108 568.513 478.08C572.764 476.542 577.053 475.102 581.379 473.761C585.428 472.67 589.485 471.612 593.549 470.588C562.666 461.751 531.98 449.334 501.49 433.339Z" fill="white"/>
<path d="M474.661 317.832C468.123 312.216 460.554 309.466 451.96 309.581C451.056 314.428 452.431 318.554 456.088 321.957C470.951 328.605 484.712 336.855 497.362 346.709C514.776 367.524 531.286 388.838 546.892 410.65C561.314 419.639 576.449 422.389 592.295 418.901C606.025 432.123 617.995 446.728 628.208 462.717C635.151 461.31 642.115 460 649.1 458.787C641.037 435.697 626.229 416.901 604.677 402.4C600.76 399.854 598.486 400.337 592.295 396.212C587.845 373.577 580.969 361.201 567.53 342.583C565.111 343.447 563.047 344.822 561.339 346.709C556.802 336.213 551.99 336.213 546.892 346.709C556.736 362.186 562.928 378.687 565.466 396.212C549.753 373.766 532.558 352.452 513.872 332.27C501.828 325.221 490.131 317.658 478.789 309.581C477.414 312.332 476.036 315.081 474.661 317.832Z" fill="white"/>
<path d="M671.265 565.333C671.79 563.773 672.9 563.032 674.594 563.113C674.07 564.674 672.96 565.414 671.265 565.333Z" fill="#FFC400"/>
<path d="M674.594 563.113C675.498 561.145 676.978 560.59 679.033 561.448C677.854 562.767 676.373 563.322 674.594 563.113Z" fill="#FFC400"/>
<path d="M885.993 611.952C885.088 610.483 883.793 609.744 882.109 609.732C885.009 618.694 886.859 627.574 887.658 636.371H890.987C890.863 643.578 893.268 649.868 898.2 655.241C898.57 660.05 898.94 664.861 899.31 669.67C901.963 675.282 904.368 681.017 906.523 686.875C906.893 687.06 907.263 687.244 907.633 687.43C908.336 685.135 909.446 683.101 910.962 681.325C909.101 679.11 907.436 676.706 905.968 674.11C905.659 669.716 904.733 665.461 903.194 661.345C903.355 660.488 903.724 659.748 904.304 659.125C901.237 654.264 899.573 648.899 899.31 643.031C897.409 641.501 895.929 639.651 894.871 637.481C892.126 628.87 889.166 620.361 885.993 611.952Z" fill="#FFC400"/>
<path d="M882.109 958.816C868.786 957.279 855.47 956.724 842.16 957.151C840.25 959.586 837.66 960.882 834.392 961.036C825.942 962.825 817.434 964.305 808.869 965.476L806.095 968.251C805.615 969.472 806.17 970.212 807.759 970.471C811.829 969.73 815.897 968.991 819.966 968.251C824.226 968.537 828.665 968.537 833.282 968.251V964.921H836.612C836.446 966.089 836.63 967.199 837.166 968.251C843.572 966.488 849.675 964.083 855.477 961.036C859.517 960.321 863.401 960.876 867.128 962.701C871.909 960.626 876.903 959.332 882.109 958.816Z" fill="#FFC400"/>
<path d="M685.691 640.811V636.371C683.931 637.385 682.267 637.385 680.698 636.371C680.356 637.268 679.801 638.008 679.033 638.591C677.371 636.006 675.151 633.97 672.375 632.486C670.303 631.697 668.639 632.252 667.381 634.151C666.272 632.672 665.162 631.191 664.052 629.711L662.388 631.376C665.477 633.685 665.108 634.425 661.278 633.596C659.973 631.738 658.493 630.073 656.839 628.601C657.522 626.808 658.631 625.328 660.168 624.162C658.106 619.955 656.257 619.955 654.62 624.162C655.904 632.606 654.423 632.976 650.181 625.271C648.198 624.366 646.348 623.256 644.632 621.942C641.968 625.175 640.489 624.804 640.193 620.832C635.801 621.862 632.842 620.381 631.316 616.392C629.524 617.118 627.674 617.673 625.767 618.057C627.308 619.043 627.123 619.598 625.212 619.722C623.277 617.359 620.872 616.434 617.999 616.947C638.576 698.945 655.96 781.638 670.156 865.024C666.721 864.884 664.687 863.034 664.052 859.474C661.394 845.445 658.435 831.385 655.175 817.296C657.338 843.729 661.037 869.999 666.272 896.103C667.927 902.796 670.331 903.166 673.485 897.213C674.253 897.796 674.808 898.536 675.149 899.433C676.028 897.116 677.323 895.081 679.033 893.328C684.008 892.061 687.707 889.101 690.13 884.448C692.624 882.611 695.213 882.242 697.898 883.338C698.712 882.162 699.527 880.986 700.341 879.81L702.2 877.124L702.892 876.124C710.729 869.9 717.942 863.055 724.531 855.589C728.114 852.686 732.184 851.021 736.738 850.594C736.609 846.81 738.458 845.329 742.286 846.155C745.179 841.987 749.063 838.657 753.938 836.165C754.611 832.782 756.275 830.007 758.932 827.84C760.096 827.294 761.206 827.478 762.261 828.395C762.965 826.101 764.074 824.066 765.59 822.29C770.351 820.472 774.79 818.252 778.907 815.631C779.867 814.122 780.976 812.827 782.236 811.746C780.177 811.999 779.253 811.258 779.462 809.526C783.508 807.326 786.837 804.366 789.449 800.646C789.908 801.153 790.463 801.524 791.114 801.756C792.361 800.187 793.471 798.522 794.443 796.761C797.756 796.903 801.085 796.903 804.43 796.761C801.595 795.365 800.855 793.33 802.211 790.656C806.871 792.198 809.091 790.348 808.869 785.107C810.036 784.941 811.146 785.125 812.198 785.662C810.233 786.255 809.863 787.181 811.088 788.436C812.957 784.909 815.917 783.059 819.966 782.887C820.475 779.138 821.215 775.438 822.185 771.787C828.941 771.383 833.751 768.237 836.612 762.352C838.683 761.563 840.348 762.118 841.605 764.017C842.368 761.722 842.182 759.502 841.05 757.357C843.27 756.617 845.489 755.878 847.709 755.137C846.792 754.082 846.608 752.972 847.154 751.808C850.959 755.349 852.254 754.794 851.038 750.143C852.517 749.402 853.997 748.663 855.477 747.923C854.58 747.581 853.84 747.026 853.257 746.258C855.866 744.339 858.826 743.598 862.135 744.038C861.39 742.543 861.39 741.247 862.135 740.153C865.496 739.555 868.825 738.814 872.122 737.933C873.601 736.453 873.601 734.973 872.122 733.493C875.452 733.597 877.672 732.118 878.78 729.053C881.269 729.407 883.674 729.222 885.993 728.498C886.734 727.758 886.734 727.019 885.993 726.278C882.215 725.204 881.66 723.539 884.329 721.283C887.405 720.7 890.363 719.775 893.207 718.509C891.301 714.698 888.527 711.738 884.884 709.629C880.956 708.882 877.073 707.957 873.232 706.854C871.76 704.459 869.91 702.423 867.683 700.749C865.91 701.842 864.06 702.027 862.135 701.304C851.509 697.656 840.782 694.326 829.953 691.314C825.228 690.179 822.084 687.404 820.521 682.99C816.938 686.205 814.348 685.465 812.753 680.77C812.322 681.8 811.582 682.54 810.533 682.99C806.577 680.917 802.693 678.697 798.881 676.33C797.504 676.926 796.209 677.666 794.998 678.55C782.258 674.932 770.792 669.752 760.597 663.01C758.681 664.285 758.867 665.58 761.151 666.895C760.042 667.636 758.932 667.636 757.822 666.895C752.537 663.989 746.988 661.769 741.177 660.235C738.758 658.151 736.724 655.747 735.073 653.021C734.949 656.292 733.285 657.771 730.08 657.46C730.545 654.325 729.435 651.921 726.751 650.246C724.028 647.634 722.18 648.189 721.202 651.911C718.292 649.79 715.888 647.199 713.989 644.141C712.323 646.454 710.104 647.934 707.331 648.581C701.539 646.333 696.175 643.373 691.24 639.701C689.497 640.599 687.647 640.97 685.691 640.811Z" fill="#FFC400"/>
<path d="M862.135 744.038C863.614 744.407 865.094 744.778 866.574 745.148C864.222 749.712 862.743 749.341 862.135 744.038Z" fill="#FFC400"/>
<path d="M795.552 808.416C796.525 808.27 797.265 808.64 797.772 809.526C791.724 818.509 790.985 818.139 795.552 808.416Z" fill="#FFC400"/>
<path d="M741.177 865.024C742.081 863.54 743.376 862.43 745.061 861.694C745.024 863.89 743.729 865 741.177 865.024Z" fill="#FFC400"/>
</svg>
